<svg xmlns="http://www.w3.org/2000/svg" xmlns:xlink="http://www.w3.org/1999/xlink" version="1.1" x="0px" y="0px" viewBox="0 0 100 125" style="enable-background:new 0 0 100 100;" xml:space="preserve"><g><path d="M78.5,35.5c-1.6-4.4-6.5-7.4-11.9-7.4c-6.3,0-11.6,4-12.3,9.2c-0.3,1.1-0.5,2.2-0.5,3.4c0,6.7,5.8,12.2,13,12.2   s13-5.5,13-12.2C79.7,38.9,79.3,37.1,78.5,35.5z M66.6,47.7c-6.2,0-11.2-4.1-11.2-9.2s5-9.2,11.2-9.2c6.2,0,11.2,4.1,11.2,9.2   S72.7,47.7,66.6,47.7z"/><path d="M33.2,28.1c-6.4,0-11.7,4-12.4,9.3c-0.3,1.1-0.5,2.2-0.5,3.3c0,6.7,5.8,12.2,13,12.2s13-5.5,13-12.2c0-1.8-0.4-3.5-1.2-5.2   C43.5,31.1,38.6,28.1,33.2,28.1z M33.2,47.7C27,47.7,22,43.6,22,38.5s5-9.2,11.2-9.2s11.2,4.1,11.2,9.2S39.3,47.7,33.2,47.7z"/></g><ellipse transform="matrix(0.8747 -0.4847 0.4847 0.8747 -28.805 21.5302)" cx="27.2" cy="66.5" rx="3.5" ry="6.7"/><g><circle cx="46.1" cy="71.4" r="2.2"/><circle cx="54" cy="71.4" r="2.2"/><circle cx="46.1" cy="78.7" r="2.2"/><circle cx="54" cy="78.7" r="2.2"/></g><ellipse transform="matrix(-0.8747 -0.4847 0.4847 -0.8747 103.6032 159.7352)" cx="72.4" cy="66.5" rx="3.5" ry="6.7"/><path d="M62.4,74.8c0-5.8-5.7-10.6-12.8-10.6S36.8,69,36.8,74.8c0,0.8,0.1,1.6,0.4,2.4c0.1,6.4,5.6,11.5,12.5,11.5  c6.8,0,12.3-5.2,12.5-11.5C62.3,76.4,62.4,75.6,62.4,74.8z M49.6,65.5c6.4,0,11.6,4.2,11.6,9.3s-5.2,9.3-11.6,9.3S38,79.9,38,74.8  S43.2,65.5,49.6,65.5z"/><path d="M79.4,57.4l-4.6-1.9v-0.6c5.6-2.8,9-8.2,9-14.2c0-4-1.6-7.8-4.4-10.8C76.5,16.5,64.2,6.8,50.1,6.8C36.3,6.8,24,16.3,21,29.5  c-3.1,3-4.7,7-4.7,11.2c0,6,3.6,11.6,9.2,14.3l0,0.5l-4.6,1.9l-0.1,0c-1.3,0.6-2.2,1.8-2.7,3.4c-0.9,2.8-0.3,6.7,1.7,10.4  c3.2,6.1,8.7,9.6,12.4,7.9l0.4-0.1c1.2,8.1,8.5,14.2,17.2,14.2c8.8,0,16.1-6.2,17.2-14.2l1.2,0.5c4.1,1.8,9.4-2.9,12.2-8.2  c1.9-3.7,2.6-7.5,1.7-10.4C81.6,59.3,80.7,58.1,79.4,57.4z M66.7,26.7c8.2,0,14.9,6.3,14.9,14c0,7.7-6.7,14-14.9,14  c-8.2,0-14.9-6.3-14.9-14C51.8,33,58.5,26.7,66.7,26.7z M18.4,40.6c0-7.7,6.7-14,14.9-14c8.2,0,14.9,6.3,14.9,14  c0,7.7-6.7,14-14.9,14C25.1,54.6,18.4,48.3,18.4,40.6z M31.7,76.2c-2.4,1.3-6.5-1.5-9.1-6.4C19.9,65,19.7,60,22,58.7  c2.4-1.3,6.5,1.5,9.1,6.4C33.8,69.9,34.1,74.8,31.7,76.2z M27,55c9.8,0,10.4,9,10.4,9C33.5,55.7,27,55,27,55z M49.8,90.7  c-8.2,0-14.9-6.3-14.9-14c0-7.7,6.7-14,14.9-14c8.2,0,14.9,6.3,14.9,14C64.7,84.5,58,90.7,49.8,90.7z M62.4,64c0,0,0.7-9,10.4-9  C72.9,55,66.4,55.7,62.4,64z M77.2,69.8c-2.7,4.8-6.8,7.7-9.1,6.4c-2.4-1.3-2.1-6.3,0.6-11.1c2.7-4.8,6.8-7.7,9.1-6.4  C80.1,60,79.8,65,77.2,69.8z"/><text x="0" y="115" fill="#000000" font-size="5px" font-weight="bold" font-family="'Helvetica Neue', Helvetica, Arial-Unicode, Arial, Sans-serif">Created by Jamie Meyer</text><text x="0" y="120" fill="#000000" font-size="5px" font-weight="bold" font-family="'Helvetica Neue', Helvetica, Arial-Unicode, Arial, Sans-serif">from the Noun Project</text></svg>