<svg xmlns="http://www.w3.org/2000/svg" xmlns:xlink="http://www.w3.org/1999/xlink" version="1.1" x="0px" y="0px" viewBox="0 0 299.57 569.7475" style="enable-background:new 0 0 299.57 455.798;" xml:space="preserve"><g><path d="M23.163,417.784H10v35.188h91v-35.188H44.781V99.099l77.481-77.48H152v92.295l-3.766,1.512   c-1.21,0.486-1.72,2.053-1.138,3.5c0.58,1.447,2.033,2.228,3.243,1.741L152,120v1.538l-3.766,1.512   c-1.21,0.486-1.72,2.053-1.138,3.5c0.58,1.447,2.033,2.228,3.243,1.741l1.66-0.666v1.538l-3.766,1.512   c-1.21,0.486-1.72,2.053-1.138,3.5c0.58,1.447,2.033,2.228,3.243,1.741l1.66-0.666v1.538l-3.766,1.512   c-1.21,0.486-1.72,2.053-1.138,3.5c0.58,1.447,2.033,2.228,3.243,1.741l1.66-0.666v5.544c-0.067,0.043-0.137,0.081-0.203,0.126   c-3.202,2.171-4.551,5.944-4.536,9.842c0.001,0.185,0.021,0.376,0.026,0.563c-7.828,0.352-16.871,5.63-20.993,17.619   c-4.009,11.887-6.151,21.335-6.716,31.631c2.051-9.702,5.551-17.395,8.669-22.779c5.025-8.684,10.117-13.497,11.086-14.373   c1.846-1.647,4.209-2.549,6.664-2.549c2.848,0,5.569,1.221,7.464,3.345c3.65,4.089,3.309,10.405-0.761,14.079   c-0.09,0.086-0.203,0.197-0.361,0.359c-0.342,0.342-0.881,0.908-1.579,1.725c-1.282,1.502-3.226,4.012-5.198,7.422   c-5.137,8.92-7.746,18.945-7.753,29.797c0.003,7.867,1.414,16.166,4.195,24.662c1.449,4.419-0.373,9.13-4.123,11.528   c1.455,7.365,2.588,16.28,2.574,26.183c-0.002,9.855-1.104,20.678-4.063,32.025c5.543,4.76,15.795,9.149,21.048,11.081   c0.62,0.233,1.16,0.431,1.627,0.599c4.696-15.595,6.39-30.466,6.388-43.705c-0.031-25.047-5.912-44.313-9.09-52.938   c-2.301-17.188,2.557-37.258,5.296-51.25c0.2-0.697,0.366-1.403,0.503-2.115c1.996,0.91,4.049,1.425,6.082,1.452   c0.008,0,0.016,0,0.023,0c1.935,0,3.869-0.509,5.522-1.627c0.482-0.328,0.908-0.703,1.308-1.098   c-1.774-0.681-3.453-1.553-5.014-2.597c-0.542,0.202-1.143,0.318-1.84,0.32c-1.585,0.038-3.59-0.623-5.645-1.895   c-0.219-7.656-3.909-14.779-10.293-16.414c-0.028-0.358-0.049-0.712-0.047-1.05c0.012-2.873,0.933-4.766,2.332-5.699   c0.758-0.506,1.64-0.77,2.748-0.773c0.547-0.013,1.146,0.064,1.777,0.212c0.092-0.559,0.195-1.117,0.325-1.673   c0.252-1.082,0.589-2.122,0.967-3.139c-0.803-0.193-1.607-0.313-2.411-0.365v-6.484l4.026-1.617c1.21-0.486,1.72-2.053,1.139-3.5   c-0.58-1.447-2.033-2.227-3.244-1.742L158,134.379v-1.538l4.026-1.617c1.21-0.486,1.72-2.053,1.139-3.5   c-0.58-1.447-2.033-2.228-3.244-1.742L158,126.754v-1.538l4.026-1.617c1.21-0.486,1.72-2.053,1.139-3.5   c-0.58-1.447-2.033-2.227-3.244-1.742L158,119.129v-1.538l4.026-1.617c1.21-0.486,1.72-2.053,1.139-3.5   c-0.58-1.447-2.033-2.227-3.244-1.742L158,111.504V21.618h141.57V0H0v21.618h23.163V417.784z M34,93.166   c-2.485,0-4.5-2.014-4.5-4.5c0-2.484,2.015-4.5,4.5-4.5c2.485,0,4.5,2.016,4.5,4.5C38.5,91.152,36.485,93.166,34,93.166z    M44.781,68.526V21.618H91.69L44.781,68.526z M117.5,12c0,2.485-2.015,4.5-4.5,4.5c-2.485,0-4.5-2.015-4.5-4.5   c0-2.485,2.015-4.5,4.5-4.5C115.485,7.5,117.5,9.515,117.5,12z M34,7.5c2.485,0,4.5,2.015,4.5,4.5c0,2.485-2.015,4.5-4.5,4.5   c-2.485,0-4.5-2.015-4.5-4.5C29.5,9.515,31.515,7.5,34,7.5z"/><ellipse transform="matrix(0.2268 -0.9739 0.9739 0.2268 -9.6837 300.2758)" cx="184.276" cy="156.237" rx="22.493" ry="22.495"/><path d="M133.321,329.625c-0.208,0.591-0.412,1.18-0.632,1.772c-2.398,6.472,0.908,13.665,7.383,16.063   c1.431,0.53,2.896,0.781,4.338,0.781c4.758,0,9.248-2.736,11.334-7.225c-2.127-0.771-5.629-2.11-9.451-3.859   C141.859,335.109,137.018,332.581,133.321,329.625z"/><path d="M135.523,322.789c-0.364,1.26-0.76,2.528-1.172,3.799c5.532,4.775,15.822,9.181,21.089,11.118   c0.503,0.189,0.958,0.356,1.361,0.502c0.48-1.35,0.939-2.696,1.372-4.038c-2.063-0.739-5.784-2.14-9.882-4.014   C143.939,328.147,139.192,325.675,135.523,322.789z"/><path d="M140.103,250.51c-3.114-9.514-4.291-17.912-4.293-25.285c0.008-13.638,4.033-23.876,8.021-30.797   c1.992-3.449,3.977-6.044,5.41-7.722c0.718-0.84,1.297-1.45,1.668-1.825c0.184-0.188,0.316-0.317,0.389-0.385   c0.028-0.025,0.047-0.043,0.057-0.053c0.004-0.003,0.006-0.004,0.007-0.006c3.263-2.947,3.538-7.978,0.608-11.264   c-2.942-3.297-7.998-3.584-11.295-0.645c-0.459,0.416-5.582,5.054-10.697,13.894c-5.107,8.817-10.176,21.94-10.168,38.802   c-0.002,9.09,1.471,19.23,5.088,30.267c1.104,3.37,4.236,5.511,7.601,5.511c0.825,0,1.664-0.129,2.492-0.4   C139.188,259.226,141.479,254.707,140.103,250.51z"/><path d="M276.661,455.798l6.627-68.677l-10.451-1.01l-0.724,7.505l-94.066-24.113l-2.558,10.184l36.616,9.386l-4.939,51.195   l-37.735,2.212l0.563,10.484l96.94-5.682l-0.724,7.506L276.661,455.798z M217.773,439.647l4.627-47.935l48.691,12.482   l-3.137,32.512L217.773,439.647z"/></g><text x="0" y="470.798" fill="#000000" font-size="5px" font-weight="bold" font-family="'Helvetica Neue', Helvetica, Arial-Unicode, Arial, Sans-serif">Created by Gan Khoon Lay</text><text x="0" y="475.798" fill="#000000" font-size="5px" font-weight="bold" font-family="'Helvetica Neue', Helvetica, Arial-Unicode, Arial, Sans-serif">from the Noun Project</text></svg>