<svg xmlns="http://www.w3.org/2000/svg" xmlns:xlink="http://www.w3.org/1999/xlink" version="1.1" x="0px" y="0px" viewBox="0 0 152.666 273.78625" style="enable-background:new 0 0 152.666 219.029;" xml:space="preserve"><g><path d="M100.154,74.71c0.684,0.247,1.355,0.535,1.996,0.856c0.581,0.285,1.155,0.614,1.727,0.963h13.373v15.819   c3.34,6.357,6.254,14.249,8.803,23.848h3.863v-70H117.25v19.833h-16.902c-0.566,2.811-1.614,5.449-3.056,7.824   C98.272,74.007,99.232,74.283,100.154,74.71z"/><path d="M152.666,140.863v-10.667h-7.02c-1.311,4.608-5.548,7.999-10.573,7.999h-17.668c-0.052,0-0.103-0.006-0.154-0.007v1.659   c1.597,0.844,3.06,1.95,4.291,3.318c2.936,3.269,4.35,7.645,3.883,12.008l-5.5,51.502c-0.285,2.67-1.242,5.108-2.674,7.179v5.175   h12.666v-78.166H152.666z"/><path d="M27.238,155.174c-0.467-4.365,0.949-8.743,3.887-12.008c1.23-1.37,2.693-2.478,4.291-3.321v-1.654   c-0.052,0.001-0.103,0.007-0.154,0.007H17.594c-5.023,0-9.262-3.391-10.571-8.001H0v10.667h22.75v78.166h12.666v-5.167   c-1.436-2.073-2.395-4.514-2.68-7.186L27.238,155.174z"/><path d="M35.416,92.339v-15.81h13.366c0.576-0.352,1.158-0.679,1.747-0.969c0.635-0.315,1.301-0.602,1.973-0.847   c0.924-0.43,1.887-0.707,2.872-0.86c-1.441-2.375-2.489-5.014-3.056-7.824H35.416V46.196H22.75v21.422   c-0.313-0.636-0.619-1.269-0.937-1.907l-3.58,1.783c0.749,1.506,1.484,2.995,2.192,4.465l2.324-1.118v3.314l-1.061,0.487   c0.367,0.801,0.721,1.594,1.061,2.38v39.174h3.861C29.159,106.59,32.059,98.737,35.416,92.339z"/><path d="M132.813,119.309c-0.088,0.118-0.221,0.303-0.385,0.554c-0.323,0.502-0.773,1.274-1.223,2.303   c-0.904,2.06-1.823,5.144-1.823,9.216c0,1.186,0.082,2.46,0.263,3.814h5.427c4.418,0,8-3.581,8-7.999c0-4.418-3.582-8.001-8-8.001   H132.9C132.884,119.216,132.856,119.251,132.813,119.309z"/><path d="M23.014,135.195c0.181-1.357,0.265-2.633,0.265-3.819c0-7.113-2.814-11.246-3.429-12.066   c-0.042-0.057-0.068-0.092-0.085-0.113h-2.171c-4.418,0-7.998,3.581-7.998,8.001c0,4.418,3.58,7.998,7.998,7.998H23.014z"/><path d="M49.287,139.03h7.088v2H42.65c-3.527,0-6.939,1.521-9.297,4.143c-2.358,2.622-3.508,6.178-3.133,9.683l2.949,27.617   c8.362,2.063,15.353,3.701,20.282,4.826c2.315,0.529,4.169,0.945,5.509,1.242l-2.404-22.514l19.775,0.002h19.775l-2.405,22.512   c1.34-0.297,3.194-0.712,5.51-1.24c4.931-1.128,11.918-2.766,20.28-4.826l2.949-27.619c0.375-3.505-0.773-7.059-3.131-9.683   c-2.359-2.622-5.77-4.143-9.297-4.143H96.291v-2h7.088v-31.324c2.063,5.222,4.215,12.134,6.211,21.213   c0.807,3.655,4.07,6.276,7.814,6.276h9.221c-0.162-1.339-0.243-2.616-0.243-3.814c0.001-5.839,1.702-9.947,2.954-12.186h-5.605   c-4.535-17.932-9.768-28.06-14.822-34.205c-2.809-3.396-5.619-5.52-8.1-6.74c-0.629-0.313-1.232-0.563-1.801-0.764   c-1.018-0.492-2.152-0.775-3.357-0.775h-0.386c-4.497,5.472-11.314,8.969-18.933,8.969c-7.618,0-14.435-3.497-18.932-8.969h-0.385   c-1.205,0-2.34,0.284-3.355,0.775c-0.57,0.201-1.174,0.451-1.805,0.765c-3.744,1.843-8.127,5.663-12.334,12.864   c-3.664,6.262-7.316,15.125-10.59,28.081h-5.604c1.251,2.238,2.951,6.345,2.952,12.18c0,1.2-0.083,2.479-0.244,3.819h9.227   c3.742,0,7.004-2.62,7.811-6.277c1.994-9.085,4.15-16,6.215-21.218V139.03z"/><path d="M53.832,61.18c0,12.428,10.074,22.5,22.5,22.5c12.428,0,22.5-10.072,22.5-22.5c0-0.654-0.034-1.301-0.089-1.941   c0.664-0.438,1.295-0.902,1.853-1.421c0.018-0.017,0.039-0.03,0.057-0.047c1.68-1.568,2.828-3.684,2.817-6.074   c-0.002-14.992-12.001-27.171-26.916-27.484l0.328-0.08h0.002c-0.427-1.734-0.979-3.421-1.657-5.04l-3.689,1.543   c0.503,1.206,0.913,2.465,1.262,3.751c-13.695,1.574-24.328,13.196-24.33,27.311c-0.014,2.391,1.136,4.506,2.815,6.074   c0.226,0.207,0.472,0.401,0.716,0.597c0.581,0.466,1.212,0.898,1.889,1.302C53.855,60.169,53.832,60.672,53.832,61.18z    M52.47,51.696c0.022-12.175,9.262-22.166,21.123-23.375c0.094,0.7,0.169,1.405,0.216,2.119c-3.019,0.454-5.215,1.833-5.215,3.466   c0,2.002,3.303,3.625,7.375,3.625c4.074,0,7.375-1.623,7.375-3.625c0-1.689-2.354-3.105-5.537-3.507   c-0.042-0.719-0.112-1.429-0.197-2.135c12.209,0.86,21.837,11.006,21.859,23.432c-0.013,1.133-0.457,2.097-1.566,3.17   c-3.303,3.279-12.665,5.461-21.932,5.393c-6.189,0.005-12.396-0.872-16.842-2.518c-2.224-0.813-3.992-1.824-5.095-2.875   C52.927,53.793,52.48,52.829,52.47,51.696z"/><path d="M60.58,203.701l-1.059-9.917c-2.83-0.619-12.39-2.737-25.787-6.023l1.986,18.597c0.732,6.863,6.891,11.834,13.756,11.102   C56.342,216.726,61.311,210.566,60.58,203.701z"/><path d="M118.928,187.761c-13.4,3.288-22.959,5.406-25.786,6.023l-1.06,9.917c-0.732,6.863,4.238,13.025,11.104,13.758   c0.451,0.049,0.9,0.072,1.344,0.072c6.307,0,11.727-4.76,12.414-11.174h-0.002L118.928,187.761z"/><path d="M41.251,4.522c1.598-0.299,3.153-0.47,4.664-0.523L45.774,0c-1.717,0.061-3.473,0.254-5.262,0.591L41.251,4.522z"/><path d="M53.31,4.725l0.938-3.889c-1.698-0.409-3.461-0.676-5.279-0.791l-0.252,3.992C50.307,4.138,51.839,4.37,53.31,4.725z"/><path d="M25.076,6.799l2.098,3.403c1.419-0.873,2.822-1.647,4.205-2.324l-1.758-3.591l-0.002-0.002   C28.116,5.023,26.602,5.857,25.076,6.799z"/><path d="M32.474,3l1.521,3.7c1.523-0.627,3.024-1.138,4.494-1.541l-1.057-3.857h-0.002C35.801,1.747,34.146,2.313,32.474,3z"/><path d="M73.856,16.209c-0.846-1.575-1.812-3.071-2.894-4.471l-3.167,2.447c0.947,1.221,1.795,2.531,2.535,3.914L73.856,16.209z"/><path d="M60.172,7.471l2.008-3.459c-1.53-0.888-3.151-1.645-4.854-2.256L55.977,5.52C57.446,6.05,58.849,6.704,60.172,7.471z"/><path d="M62.5,8.996c1.246,0.918,2.409,1.944,3.478,3.068l2.898-2.757c-1.228-1.291-2.567-2.475-4.008-3.535L62.5,8.996z"/><path d="M13.978,48.635c-0.572-1.542-1.082-3.076-1.513-4.598l-3.85,1.088v0.002c0.465,1.639,1.009,3.271,1.611,4.899   L13.978,48.635z"/><path d="M17.016,55.869c-0.693-1.505-1.354-3.007-1.972-4.503l-3.697,1.521c0.641,1.56,1.325,3.112,2.037,4.656L17.016,55.869z"/><path d="M20.476,63.024c-0.741-1.487-1.478-2.979-2.194-4.471l-3.606,1.732c0.73,1.518,1.475,3.026,2.218,4.52L20.476,63.024z"/><path d="M22.024,13.778c0.915-0.706,1.822-1.37,2.725-1.993l-2.27-3.292c-0.964,0.665-1.931,1.372-2.899,2.12   c-0.425,0.327-0.837,0.658-1.238,0.99l2.557,3.079C21.261,14.38,21.636,14.079,22.024,13.778z"/><path d="M11.765,41.248c-0.344-1.579-0.587-3.14-0.713-4.676l-3.986,0.326c0.142,1.735,0.414,3.47,0.79,5.198L11.765,41.248z"/><path d="M18.776,16.578l-2.782-2.872c-1.334,1.291-2.505,2.613-3.523,3.967l3.197,2.407C16.553,18.904,17.582,17.734,18.776,16.578   z"/><path d="M6.957,33.707l3.997,0.065c0.027-1.553,0.188-3.079,0.503-4.581l-3.913-0.824C7.17,30.137,6.984,31.921,6.957,33.707z"/><path d="M8.406,25.239l3.783,1.302c0.482-1.402,1.118-2.785,1.931-4.157l-3.441-2.039C9.729,21.947,8.978,23.581,8.406,25.239z"/><polygon points="18.233,67.494 18.233,67.494 18.233,67.492  "/></g><text x="0" y="234.029" fill="#000000" font-size="5px" font-weight="bold" font-family="'Helvetica Neue', Helvetica, Arial-Unicode, Arial, Sans-serif">Created by Gan Khoon Lay</text><text x="0" y="239.029" fill="#000000" font-size="5px" font-weight="bold" font-family="'Helvetica Neue', Helvetica, Arial-Unicode, Arial, Sans-serif">from the Noun Project</text></svg>