<svg xmlns="http://www.w3.org/2000/svg" xmlns:xlink="http://www.w3.org/1999/xlink" version="1.1" x="0px" y="0px" viewBox="0 0 445.041 390.44375" style="enable-background:new 0 0 445.041 312.355;" xml:space="preserve"><g><circle cx="83.294" cy="148.585" r="22.5"/><path d="M171.978,124.342l13.906-10.497l-4.303-5.7l-18.553,14.003C166.195,122.352,169.209,123.116,171.978,124.342z"/><path d="M114.328,276.023l-8.761-25.263c-0.165-0.475-0.305-0.962-0.431-1.501c-1.174-2.469-1.452-5.254-0.778-7.908l3.085-12.131   l-19.345,5.055l9.236-36.332l16.563,5.888l7.314-28.767c1.321-5.204,5.991-8.84,11.357-8.84c0.973,0,1.95,0.124,2.9,0.365   l3.754,0.954l0.045-0.114c0.436-1.121,0.586-2.276,0.511-3.401c-3.132-4.352-4.985-9.684-4.985-15.443   c0-1.914,0.209-3.779,0.596-5.579l-47.097,35.545l-31.812-8.086c-4.137-1.053-8.342,1.45-9.395,5.586l-16.85,66.284   c-0.498,1.956-0.193,3.923,0.695,5.569c0.107,0.518,0.236,1.033,0.414,1.547v-0.002l10.131,29.219l-32.703,9.689   c-6.488,1.92-10.189,8.74-8.266,15.225c1.576,5.326,6.455,8.773,11.74,8.773c1.152,0,2.324-0.162,3.486-0.508l44.998-13.334   c3.227-0.957,5.879-3.154,7.418-6.148c1.537-2.994,1.779-6.432,0.676-9.609l-8.607-24.824l12.326,3.133   c2.389,0.998,5.105,1.262,7.805,0.559l-0.002-0.002l18.574-4.852l-4.362,25.11L114.328,276.023z M117.392,179.6l-2.895,7.463   l-4.754-1.689L117.392,179.6z"/><circle cx="161.294" cy="148.585" r="22.5"/><path d="M192.328,276.023l-8.761-25.263c-0.165-0.475-0.304-0.962-0.431-1.501c-1.174-2.469-1.451-5.254-0.777-7.908l3.084-12.131   l-19.345,5.055l9.236-36.332l16.564,5.889l7.314-28.768c1.322-5.204,5.991-8.84,11.357-8.84c0.973,0,1.951,0.124,2.9,0.365   l3.756,0.954l0.044-0.114c0.434-1.121,0.585-2.276,0.511-3.4c-3.133-4.353-4.986-9.685-4.986-15.444   c0-1.914,0.209-3.779,0.596-5.579l-47.097,35.545l-31.811-8.086c-4.138-1.053-8.343,1.45-9.395,5.586l-16.851,66.284   c-0.497,1.956-0.192,3.923,0.696,5.569c0.106,0.518,0.235,1.033,0.413,1.547v-0.002l10.132,29.219l-32.704,9.689   c-6.488,1.92-10.188,8.74-8.266,15.225c1.577,5.326,6.455,8.773,11.74,8.773c1.153,0,2.324-0.162,3.486-0.508l44.999-13.334   c3.227-0.957,5.879-3.154,7.417-6.148c1.537-2.994,1.779-6.432,0.677-9.609l-8.608-24.824l12.326,3.133   c2.389,0.998,5.106,1.262,7.806,0.559l-0.002-0.002l18.574-4.852l-4.363,25.11L192.328,276.023z M195.392,179.6l-2.894,7.463   l-4.754-1.689L195.392,179.6z"/><path d="M249.977,124.341l13.906-10.496l-4.301-5.7l-18.554,14.003C244.195,122.352,247.209,123.116,249.977,124.341z"/><path d="M409.672,40.624c-1.707-2.135-3.871-3.725-6.121-4.678c-1.5-0.642-3.017-1.011-4.491-1.19   c-3.372,5.714-9.577,9.567-16.677,9.567s-13.305-3.853-16.677-9.567c-1.475,0.179-2.992,0.548-4.492,1.19   c-3.399,1.417-6.493,4.326-8.366,8.233c-1.902,3.918-2.813,8.714-2.818,14.693c0.017,9.816,2.461,23.009,8.557,41.525   c0.551,1.673,1.766,2.934,3.252,3.613v62.859c0,5.189,4.207,9.393,9.392,9.393c5.188,0,9.393-4.203,9.393-9.393V98.296h3.521   v68.575c0,5.189,4.205,9.393,9.393,9.393c5.186,0,9.393-4.203,9.393-9.393v-62.86c1.485-0.679,2.699-1.939,3.252-3.613   c6.09-18.516,8.537-31.709,8.555-41.524C414.725,50.937,413.117,44.952,409.672,40.624z"/><circle cx="382.383" cy="24.952" r="17.092"/><circle cx="239.294" cy="148.585" r="22.5"/><path d="M337.583,108.145l-93.289,70.406l-31.811-8.086c-4.138-1.053-8.343,1.45-9.395,5.586l-16.851,66.284   c-0.497,1.956-0.192,3.923,0.696,5.569c0.106,0.518,0.235,1.033,0.413,1.547v-0.002l10.132,29.219l-32.704,9.689   c-6.488,1.92-10.188,8.74-8.266,15.225c1.577,5.326,6.455,8.773,11.74,8.773c1.153,0,2.324-0.162,3.486-0.508l44.999-13.334   c3.227-0.957,5.879-3.154,7.417-6.148c1.537-2.994,1.779-6.432,0.677-9.609l-8.608-24.824l12.326,3.133   c2.389,0.998,5.106,1.262,7.806,0.559l-0.002-0.002l18.574-4.852l-7.121,40.986c-1.16,6.664,3.306,13.006,9.971,14.166   c0.709,0.123,1.416,0.182,2.112,0.182c5.846,0,11.019-4.197,12.056-10.154l10.382-59.748c0.715-4.115-0.702-8.285-3.775-11.113   c-3.075-2.828-7.349-3.895-11.39-2.838l-23.06,6.025l9.236-36.332l19.131,6.801c0.881,0.313,1.782,0.461,2.669,0.461   c3.214,0,6.244-1.951,7.469-5.109l12.667-32.666c1.058-2.729,0.512-5.676-1.17-7.824l4.182-3.156l-4.661-6.176l48.264-36.429   L337.583,108.145z M270.498,187.063l-4.754-1.689l7.648-5.773L270.498,187.063z"/><rect x="305.813" y="150.537" width="50.848" height="3"/><rect x="407.813" y="150.537" width="20.182" height="3"/><path d="M297.119,70.778v8.443h8.523v6.945h18.543v-0.748v-6.197h8.523v-0.747v-7.695h-17.046v-0.001H297.119z M298.614,77.725   v-5.447h15.549l0.002,5.447h-8.523H298.614z M322.687,84.67h-15.55v-5.448h7.027h1.496h7.026V84.67z M331.211,72.277v5.447h-7.026   h-8.523v-5.447H331.211z"/><path d="M426.499,109.724h-8.523v8.442h18.543v-0.748v-6.197h8.522v-0.747v-7.695h-18.542V109.724z M435.021,116.669h-15.55v-5.448   h7.027h8.522V116.669z M427.995,104.276h15.55v5.447h-7.026h-8.523V104.276z"/><path d="M335.239,6.946v8.441h18.544v-0.747V8.443h8.522V7.694V0h-18.543v6.946H335.239z M352.287,13.891h-15.553V8.442h7.028   v0.001h8.522L352.287,13.891z M345.259,1.498h15.551v5.448h-7.026h-8.524V1.498z"/><path d="M423.308,37.888h18.544v-8.441h-8.523V22.5h-18.543v7.694v0.749h8.522v6.197V37.888z M416.281,29.446v-5.448h15.551v5.448   h-8.524H416.281z M433.328,30.943L433.328,30.943l7.028-0.001v5.448h-15.553l0.002-5.447H433.328z"/></g><text x="0" y="327.355" fill="#000000" font-size="5px" font-weight="bold" font-family="'Helvetica Neue', Helvetica, Arial-Unicode, Arial, Sans-serif">Created by Gan Khoon Lay</text><text x="0" y="332.355" fill="#000000" font-size="5px" font-weight="bold" font-family="'Helvetica Neue', Helvetica, Arial-Unicode, Arial, Sans-serif">from the Noun Project</text></svg>